<svg xmlns="http://www.w3.org/2000/svg" viewBox="0 0 96 96" enable-background="new 0 0 96 96"><g fill="#FF7538"><path d="M22 62h-8c-6.6 0-12 5.4-12 12v20h32v-20c0-6.6-5.4-12-12-12zm10 30h-28v-18c0-5.5 4.5-10 10-10h8c5.5 0 10 4.5 10 10v18zM82 24h-8c-6.6 0-12 5.4-12 12v20h32v-20c0-6.6-5.4-12-12-12zm10 30h-28v-18c0-5.5 4.5-10 10-10h8c5.5 0 10 4.5 10 10v18zM18 58c4.4 0 8-3.6 8-8s-3.6-8-8-8-8 3.6-8 8 3.6 8 8 8zm0-14c3.3 0 6 2.7 6 6s-2.7 6-6 6-6-2.7-6-6 2.7-6 6-6zM78 20c4.4 0 8-3.6 8-8s-3.6-8-8-8-8 3.6-8 8 3.6 8 8 8zm0-14c3.3 0 6 2.7 6 6s-2.7 6-6 6-6-2.7-6-6 2.7-6 6-6z"/></g><path fill="#090909" d="M41 50.2c0 .6.4 1 1 1s1-.4 1-1v-2.3c0-.6-.4-1-1-1s-1 .4-1 1v2.3z"/><path fill="#090909" d="M42 43c.6 0 1-.4 1-1v-2c0-.6-.4-1-1-1s-1 .4-1 1v2c0 .6.4 1 1 1z"/><path fill="#090909" d="M36 62.6l-.7.7c-.4.4-.4 1 0 1.4.2.2.5.3.7.3s.5-.1.7-.3l.7-.7c.4-.4.4-1 0-1.4s-1-.4-1.4 0z"/><path fill="#090909" d="M41.5 57.1l-1.4 1.4c-.4.4-.4 1 0 1.4.2.2.5.3.7.3s.5-.1.7-.3l1.4-1.4c.4-.4.4-1 0-1.4s-1-.4-1.4 0z"/><path fill="#090909" d="M52.5 46.1l-1.4 1.4c-.4.4-.4 1 0 1.4.2.2.5.3.7.3s.5-.1.7-.3l1.4-1.4c.4-.4.4-1 0-1.4s-1-.4-1.4 0z"/><path fill="#090909" d="M47 51.6l-1.4 1.4c-.4.4-.4 1 0 1.4.2.2.5.3.7.3s.5-.1.7-.3l1.4-1.4c.4-.4.4-1 0-1.4-.4-.4-1-.4-1.4 0z"/><path fill="#090909" d="M58.7 41.3c-.4-.4-1-.4-1.4 0l-.7.7c-.4.4-.4 1 0 1.4.2.2.5.3.7.3s.5-.1.7-.3l.7-.7c.4-.4.4-1 0-1.4z"/><path fill="#090909" d="M40 14l-6 6v14h16v-20h-10zm0 2.8v3.2h-3.2l3.2-3.2zm8 15.2h-12v-10h6v-6h6v16z"/></svg>