<svg xmlns="http://www.w3.org/2000/svg" viewBox="0 0 96 96" enable-background="new 0 0 96 96"><g fill="#080811"><path d="M48 27c.6 0 1-.4 1-1v-2c0-.6-.4-1-1-1s-1 .4-1 1v2c0 .6.4 1 1 1zM72 47h-2c-.6 0-1 .4-1 1s.4 1 1 1h2c.6 0 1-.4 1-1s-.4-1-1-1zM48 69c-.6 0-1 .4-1 1v2c0 .6.4 1 1 1s1-.4 1-1v-2c0-.6-.4-1-1-1zM26 47h-2c-.6 0-1 .4-1 1s.4 1 1 1h2c.6 0 1-.4 1-1s-.4-1-1-1zM64 47h-14.3c-.2-.3-.4-.5-.7-.7v-16.3c0-.6-.4-1-1-1s-1 .4-1 1v16.3c-.6.3-1 1-1 1.7 0 1.1.9 2 2 2 .7 0 1.3-.4 1.7-1h14.3c.6 0 1-.4 1-1s-.4-1-1-1zM48 18c-16.6 0-30 13.4-30 30s13.4 30 30 30 30-13.4 30-30-13.4-30-30-30zm0 58c-15.4 0-28-12.6-28-28s12.6-28 28-28 28 12.6 28 28-12.6 28-28 28z"/></g><path fill="#FF7538" d="M75.6 21.8l7.8 7.8 1.5-1.5c4.6-4.6 4.6-12.2 0-16.8l-.2-.2c-2.3-2.3-5.4-3.5-8.4-3.5s-6.1 1.2-8.4 3.5l-1.5 1.5 7.8 7.8-1.4 1.4.7.7c-5.2-5.2-11.9-8.7-19.4-10v-.5c0-2.2-1.8-4-4-4h-4c-2.2 0-4 1.8-4 4v.5c-7.5 1.3-14.3 4.8-19.5 10l.7-.7-1.4-1.4 7.8-7.8-1.5-1.5c-2.3-2.3-5.4-3.5-8.4-3.5s-6.1 1.2-8.4 3.5l-.2.2c-4.6 4.6-4.6 12.2 0 16.8l1.5 1.5 7.8-7.8 1.4 1.4.7-.7c-6.6 6.6-10.6 15.6-10.6 25.5 0 8.7 3.1 16.7 8.2 22.9l-3.1 15.6c-.3 1.3.8 2.4 2 2.4.4 0 .9-.1 1.3-.5l10.6-8.7c5.1 2.7 10.9 4.3 17 4.3s11.9-1.5 17-4.3l10.7 8.7c.4.3.8.5 1.3.5 1.2 0 2.2-1.1 2-2.4l-3.1-15.6c5-6.2 8.1-14.2 8.1-22.9 0-9.9-4-18.9-10.5-25.4l.7.7 1.4-1.5zm-6.4-9.2c2-2 4.4-3 7.1-3 2.6 0 5.1 1 7 2.9l.2.2c3.9 3.9 3.9 10.1 0 14l-.1.1-6.4-6.4-1.4-1.4-6.4-6.4zm-56.6 14.2c-3.9-3.9-3.9-10.2-.1-14.1l.2-.2c1.9-1.9 4.3-2.9 7-2.9 2.6 0 5.1 1 7 2.9l.1.1-6.4 6.4-1.4 1.4-6.4 6.4zm31.4-14.8c0-1.1.9-2 2-2h4c1.1 0 2 .9 2 2h-8zm-24.9 74.9l2.8-14.2c2.2 2.3 4.6 4.3 7.3 5.9l-10.1 8.3zm57.8 0l-10.1-8.3c2.7-1.7 5.1-3.6 7.3-5.9l2.8 14.2zm-28.9-4.9c-18.7 0-34-15.3-34-34s15.3-34 34-34 34 15.3 34 34-15.3 34-34 34z"/></svg>