<svg xmlns="http://www.w3.org/2000/svg" viewBox="0 0 96 96" enable-background="new 0 0 96 96"><path fill="#090909" d="M39.5 2l2.2 7.3.3 1.1 1.1.3c1.7.5 3.4 1.1 4.9 2l1 .6 1-.5 6.7-3.6 2.1 2.1-3.6 6.7-.5 1 .6 1c.9 1.5 1.6 3.2 2 4.9l.3 1.1 1.1.3 7.3 2.2v3l-7.3 2.2-1.1.3-.3 1.1c-.3 1.1-.6 2.1-1 3.1-.2.6-.6 1.3-1 2l-.5 1 .5 1 3.5 6.5-2.1 2.1-6.5-3.5-1-.5-1 .5-2 1c-1 .4-2.1.7-3.1 1l-1.1.3-.3 1.1-2.2 7.3h-3l-2.2-7.3-.3-1.1-1.1-.3c-1.7-.5-3.4-1.1-4.9-2l-1-.6-1 .5-6.7 3.6-2.1-2.1 3.6-6.7.5-1-.6-1c-.9-1.5-1.6-3.2-2-4.9l-.3-1.1-1.1-.3-7.3-2.2v-3l7.3-2.2 1.1-.3.3-1.1c.3-1.1.6-2.1 1-3.1.2-.6.6-1.3 1-2l.5-1-.5-1-3.5-6.5 2.1-2.1 6.5 3.5 1 .5 1-.5 2-1c1-.4 2.1-.7 3.1-1l1.1-.3.3-1.1 2.2-7.3h3m0-2h-3c-.9 0-1.7.6-1.9 1.4l-2.2 7.3c-1.1.3-2.3.6-3.4 1.1-.8.3-1.5.7-2.2 1.1l-6.5-3.5c-.3-.2-.6-.2-.9-.2-.5 0-1 .2-1.4.6l-2.1 2.1c-.6.6-.8 1.6-.3 2.4l3.5 6.5c-.4.7-.8 1.5-1.1 2.2-.5 1.1-.8 2.3-1.1 3.4l-7.3 2.2c-.8.3-1.4 1-1.4 1.9v3c0 .9.6 1.7 1.4 1.9l7.3 2.2c.5 1.9 1.3 3.8 2.3 5.4l-3.6 6.7c-.4.8-.3 1.7.3 2.4l2.1 2.1c.4.4.9.6 1.4.6.3 0 .6-.1.9-.2l6.7-3.6c1.7 1 3.5 1.7 5.4 2.3l2.2 7.3c.3.8 1 1.4 1.9 1.4h3c.9 0 1.7-.6 1.9-1.4l2.2-7.3c1.1-.3 2.3-.6 3.4-1.1.8-.3 1.5-.7 2.2-1.1l6.5 3.5c.3.2.6.2.9.2.5 0 1-.2 1.4-.6l2.1-2.1c.6-.6.8-1.6.3-2.4l-3.5-6.5c.4-.7.8-1.5 1.1-2.2.5-1.1.8-2.3 1.1-3.4l7.3-2.2c.8-.3 1.4-1 1.4-1.9v-3c0-.9-.6-1.7-1.4-1.9l-7.3-2.2c-.5-1.9-1.3-3.8-2.3-5.4l3.6-6.7c.4-.8.3-1.7-.3-2.4l-2.1-2.1c-.4-.4-.9-.6-1.4-.6-.3 0-.6.1-.9.2l-6.6 3.6c-1.7-1-3.5-1.7-5.4-2.3l-2.2-7.3c-.3-.8-1.1-1.4-2-1.4z"/><path fill="#FF7538" d="M66.8 48l1 6.7.2 1.3 1.3.3c1.4.3 2.8.9 4.1 1.7l1.2.7 1.1-.8 5.4-4.1 1.1 1.1-4.2 5.5-.8 1.1.7 1.2c.8 1.3 1.4 2.6 1.7 4.1l.3 1.3 1.3.2 6.7 1v1.5l-6.7 1-1.3.2-.3 1.3c-.3 1.4-.9 2.8-1.7 4.1l-.7 1.2.8 1.1 4.1 5.4-1.1 1-5.4-4.1-1.1-.8-1.2.7c-1.3.8-2.6 1.3-4.1 1.7l-1.3.3-.2 1.3-1 6.7h-1.5l-1-6.7-.2-1.3-1.3-.3c-1.4-.3-2.8-.9-4.1-1.7l-1.2-.7-1 .8-5.4 4.1-1.1-1.1 4.1-5.4.8-1.1-.7-1.2c-.8-1.3-1.4-2.6-1.7-4.1l-.3-1.3-1.3-.2-6.7-1v-1.5l6.7-1 1.3-.2.3-1.3c.3-1.4.9-2.8 1.7-4.1l.7-1.2-.8-1-4.1-5.4 1.1-1.1 5.4 4.1 1.1.8 1.2-.7c1.3-.8 2.6-1.3 4.1-1.7l1.3-.3.2-1.3 1-6.7h1.5m.4-2.1h-2.4c-.7 0-1.4.5-1.5 1.3l-1 7.2c-1.7.4-3.2 1.1-4.7 1.9l-5.8-4.4c-.3-.2-.6-.3-.9-.3-.4 0-.8.1-1.1.4l-1.7 1.7c-.5.5-.6 1.4-.1 2l4.3 5.8c-.9 1.4-1.5 3-1.9 4.7l-7.2 1c-.7.1-1.3.7-1.3 1.5v2.4c0 .7.5 1.4 1.3 1.5l7.2 1c.4 1.7 1.1 3.2 1.9 4.7l-4.3 5.8c-.4.6-.4 1.4.1 2l1.7 1.7c.3.3.7.4 1.1.4.3 0 .6-.1.9-.3l5.8-4.3c1.4.9 3 1.5 4.7 1.9l1 7.2c.1.7.7 1.3 1.5 1.3h2.4c.7 0 1.4-.5 1.5-1.3l1-7.2c1.7-.4 3.2-1.1 4.7-1.9l5.8 4.3c.3.2.6.3.9.3.4 0 .8-.1 1.1-.4l1.7-1.7c.5-.5.6-1.4.1-2l-4.3-5.8c.9-1.4 1.5-3 1.9-4.7l7.2-1c.7-.1 1.3-.7 1.3-1.5v-2.4c0-.7-.5-1.4-1.3-1.5l-7.2-1c-.4-1.7-1.1-3.2-1.9-4.7l4.3-5.8c.4-.6.4-1.4-.1-2l-1.7-1.7c-.3-.3-.7-.4-1.1-.4-.3 0-.6.1-.9.3l-5.8 4.3c-1.4-.9-3-1.5-4.7-1.9l-1-7.2c-.1-.7-.8-1.2-1.5-1.2z"/><path fill="#090909" d="M38 22.6c4.1 0 7.4 3.3 7.4 7.4s-3.3 7.4-7.4 7.4-7.4-3.3-7.4-7.4 3.3-7.4 7.4-7.4m0-2c-5.2 0-9.4 4.2-9.4 9.4s4.2 9.4 9.4 9.4 9.4-4.2 9.4-9.4-4.2-9.4-9.4-9.4z"/><path fill="#FF7538" d="M66 64.5c3 0 5.5 2.5 5.5 5.5s-2.5 5.5-5.5 5.5-5.5-2.5-5.5-5.5 2.5-5.5 5.5-5.5m0-2c-4.1 0-7.5 3.4-7.5 7.5s3.4 7.5 7.5 7.5 7.5-3.4 7.5-7.5-3.4-7.5-7.5-7.5z"/></svg>